<svg xmlns="http://www.w3.org/2000/svg" width="2157" height="1122" viewBox="0 0 2157 1122">
<g transform="translate(60.0,790.7) scale(1,-1)"><path d="M0.9993896484375 -271Q-45.00030517578125 -271 -66.50015258789062 -251.16683959960938Q-88 -231.33367919921875 -88 -206.3338623046875Q-88 -185.6673583984375 -74.83343505859375 -169.16748046875Q-61.6668701171875 -152.6676025390625 -38.333740234375 -152.33428955078125Q-12.6671142578125 -151.33428955078125 -0.667266845703125 -167.33425903320312Q11.33258056640625 -183.334228515625 11.33258056640625 -200.0006103515625Q11.33258056640625 -202.667236328125 11.165924072265625 -205.66720581054688Q10.999267578125 -208.66717529296875 9.999267578125 -211.6671142578125Q21.332763671875 -217.00048828125 32.99945068359375 -217.00048828125Q58.66632080078125 -217.00048828125 71.49978637695312 -198.83364868164062Q84.333251953125 -180.66680908203125 88.6666259765625 -153.33319091796875Q93 -125.99957275390625 93 -99.33251953125L93.33343505859375 360.001220703125Q93.33343505859375 376.6678466796875 94.00009155273438 394.16766357421875Q94.666748046875 411.66748046875 96.666748046875 432.3341064453125Q79.3333740234375 431.3341064453125 60.5001220703125 430.5007629394531Q41.6668701171875 429.66741943359375 26.00006103515625 428.66741943359375V482.00006103515625Q71 482.00006103515625 97.83319091796875 486.3333740234375Q124.6663818359375 490.66668701171875 139.166259765625 497.0Q153.6661376953125 503.33331298828125 160.6661376953125 510H197.99896240234375V-1.33343505859375Q197.99896240234375 -94.0001220703125 172.16567993164062 -154.00009155273438Q146.3323974609375 -214.00006103515625 101.66583251953125 -242.50003051757812Q56.999267578125 -271 0.9993896484375 -271Z" fill="#10182B"/></g><g transform="translate(335.0,790.7) scale(1,-1)"><path d="M252.66680908203125 -16Q196.66693115234375 -16 160.16693115234375 4.99993896484375Q123.66693115234375 25.9998779296875 105.83355712890625 74.33319091796875Q88.00018310546875 122.66650390625 88.00018310546875 202.99993896484375V360.001220703125Q88.00018310546875 376.6678466796875 88.66683959960938 395.1676940917969Q89.33349609375 413.66754150390625 91.6668701171875 432.3341064453125Q75.00018310546875 431.3341064453125 56.16693115234375 430.8341064453125Q37.33367919921875 430.3341064453125 22.33355712890625 429.3341064453125V482.00006103515625H46.333984375Q95.66693115234375 482.00006103515625 120.66659545898438 491.0000305175781Q145.666259765625 500 156.33294677734375 510H193.99908447265625V204.66668701171875Q193.99908447265625 125.666259765625 215.99923706054688 86.83270263671875Q237.9993896484375 47.9991455078125 289.66650390625 48.66583251953125Q323.666748046875 49.33251953125 355.500244140625 69.166015625Q387.333740234375 88.99951171875 407.00048828125 115.999755859375V352.66766357421875Q407.00048828125 374.66778564453125 408.00048828125 394.16766357421875Q409.00048828125 413.66754150390625 411.66717529296875 432.3341064453125Q394.33380126953125 431.3341064453125 375.1672058105469 430.8341064453125Q356.0006103515625 430.3341064453125 340.33380126953125 429.3341064453125V482.00006103515625H369.0006103515625Q413.3338623046875 482.00006103515625 438.3335266113281 491.16668701171875Q463.33319091796875 500.33331298828125 473.9998779296875 510H511.666015625L510.99932861328125 141.66607666015625Q510.99932861328125 126.33270263671875 509.99932861328125 98.49929809570312Q508.99932861328125 70.6658935546875 506.99932861328125 49.66595458984375Q524.3327026367188 50.999267578125 542.8326721191406 51.832611083984375Q561.3326416015625 52.66595458984375 576.6661376953125 53.3326416015625V0H418.00042724609375Q415.66705322265625 15.666748046875 414.16705322265625 30.0001220703125Q412.66705322265625 44.33349609375 411.333740234375 57.33349609375Q380.333740234375 28.00006103515625 339.1669006347656 6.000030517578125Q298.00006103515625 -16 252.66680908203125 -16Z" fill="#10182B"/></g><g transform="translate(939.0,790.7) scale(1,-1)"><path d="M43.00006103515625 0V41.66595458984375Q73.0001220703125 41.66595458984375 85.0001220703125 55.666046142578125Q97.0001220703125 69.6661376953125 99.50009155273438 94.83294677734375Q102.00006103515625 119.999755859375 102.00006103515625 152.6666259765625L102.666748046875 360.6678466796875Q102.666748046875 377.33447265625 103.33340454101562 395.5010070800781Q104.00006103515625 413.66754150390625 106.666748046875 432.3341064453125Q89.3333740234375 431.3341064453125 70.5001220703125 430.5007629394531Q51.6668701171875 429.66741943359375 36.00006103515625 428.66741943359375V482.00006103515625Q80.66668701171875 482.00006103515625 106.33316040039062 486.3333740234375Q131.9996337890625 490.66668701171875 145.49948120117188 497.0Q158.99932861328125 503.33331298828125 165.99932861328125 510H201.66558837890625Q202.9989013671875 501.0001220703125 203.33224487304688 493.00006103515625Q203.66558837890625 485 204.49893188476562 475.8332214355469Q205.332275390625 466.66644287109375 206.33221435546875 452.66644287109375Q227.66558837890625 470.66650390625 253.99893188476562 484.8332214355469Q280.332275390625 498.99993896484375 308.6656799316406 507.4999694824219Q336.99908447265625 516 362.999267578125 516Q451.66583251953125 516 491.1658630371094 462.1666259765625Q530.6658935546875 408.333251953125 530.6658935546875 292.99993896484375V124.33221435546875Q530.6658935546875 106.33209228515625 529.9992370605469 87.49896240234375Q529.3325805664062 68.66583251953125 526.6658935546875 49.66595458984375Q542.9992065429688 50.999267578125 559.6658020019531 51.499267578125Q576.3323974609375 51.999267578125 590.33251953125 52.66595458984375V0H367.0003662109375V41.66595458984375Q397.00042724609375 41.66595458984375 409.1670837402344 55.666046142578125Q421.333740234375 69.6661376953125 423.8337097167969 94.83294677734375Q426.33367919921875 119.999755859375 426.33367919921875 152.6666259765625L426.0003662109375 293.333251953125Q425.33367919921875 372.33367919921875 400.83349609375 412.1672668457031Q376.33331298828125 452.0008544921875 322.3330078125 451.33416748046875Q289.99945068359375 450.66748046875 258.83258056640625 435.00067138671875Q227.66571044921875 419.3338623046875 206.66558837890625 395.66693115234375Q207.332275390625 385.66705322265625 207.332275390625 374.1671447753906Q207.332275390625 362.667236328125 207.332275390625 350.66729736328125L206.66558837890625 124.33221435546875Q206.66558837890625 106.33209228515625 205.99893188476562 87.49896240234375Q205.332275390625 68.66583251953125 202.66558837890625 49.66595458984375Q218.66558837890625 50.999267578125 235.49884033203125 51.499267578125Q252.33209228515625 51.999267578125 266.33221435546875 52.66595458984375V0Z" fill="#10182B"/></g><g transform="translate(1556.0,790.7) scale(1,-1)"><path d="M283.33349609375 -16Q213.000244140625 -16 157.33358764648438 16.5Q101.66693115234375 49 70.000244140625 108.5Q38.33355712890625 168 38.33355712890625 249Q38.33355712890625 319 69.66690063476562 380.0Q101.000244140625 441 157.83358764648438 478.5Q214.66693115234375 516 289.66693115234375 516Q331.66693115234375 516 369.3335266113281 503.1666259765625Q407.0001220703125 490.333251953125 436.5000305175781 462.6665954589844Q465.99993896484375 434.99993896484375 483.1665344238281 391.3334045410156Q500.3331298828125 347.6668701171875 499.99981689453125 286.3338623046875L155.99932861328125 280.3338623046875Q155.99932861328125 211.666748046875 171.4993896484375 158.99978637695312Q186.99945068359375 106.33282470703125 221.99957275390625 76.99935913085938Q256.99969482421875 47.6658935546875 312.99981689453125 47.6658935546875Q340.3333740234375 47.6658935546875 370.50018310546875 57.3326416015625Q400.6669921875 66.9993896484375 428.1670227050781 85.16610717773438Q455.66705322265625 103.33282470703125 474.66693115234375 127.9993896484375L505.66650390625 100.66650390625Q475.66668701171875 55.66668701171875 436.666748046875 30.166717529296875Q397.66680908203125 4.666748046875 357.5001525878906 -5.6666259765625Q317.33349609375 -16 283.33349609375 -16ZM159.999267578125 331.6666259765625H391.33404541015625Q391.000732421875 369.66650390625 380.500732421875 400.16668701171875Q370.000732421875 430.6668701171875 348.0006103515625 448.6670837402344Q326.00048828125 466.66729736328125 292.00018310546875 466.66729736328125Q238.66656494140625 466.66729736328125 204.66629028320312 433.167236328125Q170.666015625 399.66717529296875 159.999267578125 331.6666259765625Z" fill="#10182B"/></g>
<circle cx="201.7" cy="121.3" r="61.3" fill="#BA7517"/>
</svg>