<svg xmlns="http://www.w3.org/2000/svg" width="1024" height="1024" viewBox="0 0 1024 1024">
<rect width="1024" height="1024" rx="180" fill="#FBF8F2"/>
<g transform="matrix(0.549116186693148,0,0,-0.549116186693148,480.42581926514396,639.669513406157)"><path d="M0.9993896484375 -271Q-45.00030517578125 -271 -66.50015258789062 -251.16683959960938Q-88 -231.33367919921875 -88 -206.3338623046875Q-88 -185.6673583984375 -74.83343505859375 -169.16748046875Q-61.6668701171875 -152.6676025390625 -38.333740234375 -152.33428955078125Q-12.6671142578125 -151.33428955078125 -0.667266845703125 -167.33425903320312Q11.33258056640625 -183.334228515625 11.33258056640625 -200.0006103515625Q11.33258056640625 -202.667236328125 11.165924072265625 -205.66720581054688Q10.999267578125 -208.66717529296875 9.999267578125 -211.6671142578125Q21.332763671875 -217.00048828125 32.99945068359375 -217.00048828125Q58.66632080078125 -217.00048828125 71.49978637695312 -198.83364868164062Q84.333251953125 -180.66680908203125 88.6666259765625 -153.33319091796875Q93 -125.99957275390625 93 -99.33251953125L93.33343505859375 360.001220703125Q93.33343505859375 376.6678466796875 94.00009155273438 394.16766357421875Q94.666748046875 411.66748046875 96.666748046875 432.3341064453125Q79.3333740234375 431.3341064453125 60.5001220703125 430.5007629394531Q41.6668701171875 429.66741943359375 26.00006103515625 428.66741943359375V482.00006103515625Q71 482.00006103515625 97.83319091796875 486.3333740234375Q124.6663818359375 490.66668701171875 139.166259765625 497.0Q153.6661376953125 503.33331298828125 160.6661376953125 510H197.99896240234375V-1.33343505859375Q197.99896240234375 -94.0001220703125 172.16567993164062 -154.00009155273438Q146.3323974609375 -214.00006103515625 101.66583251953125 -242.50003051757812Q56.999267578125 -271 0.9993896484375 -271Z" fill="#10182B"/></g>
</svg>